<mxfile host="Electron" modified="2024-04-18T00:13:17.774Z" agent="Mozilla/5.0 (X11; Linux x86_64) AppleWebKit/537.36 (KHTML, like Gecko) draw.io/24.2.5 Chrome/120.0.6099.109 Electron/28.1.0 Safari/537.36" etag="qvM67Gx-7Vo2OyskLR20" version="24.2.5" type="device">
  <diagram name="Page-1" id="nIZeUvzdUxajLwfs4vlB">
    <mxGraphModel dx="1434" dy="762" grid="1" gridSize="10" guides="1" tooltips="1" connect="1" arrows="1" fold="1" page="1" pageScale="1" pageWidth="850" pageHeight="1100" math="0" shadow="0">
      <root>
        <mxCell id="0" />
        <mxCell id="1" parent="0" />
        <mxCell id="UdDGJFr2nh46x9bYxFf4-1" value="&lt;div&gt;Version&lt;/div&gt;" style="rounded=0;whiteSpace=wrap;html=1;" parent="1" vertex="1">
          <mxGeometry x="200" y="120" width="80" height="40" as="geometry" />
        </mxCell>
        <mxCell id="UdDGJFr2nh46x9bYxFf4-2" value="" style="endArrow=baseDash;html=1;rounded=0;startArrow=baseDash;startFill=0;endFill=0;" parent="1" edge="1">
          <mxGeometry width="50" height="50" relative="1" as="geometry">
            <mxPoint x="200" y="80" as="sourcePoint" />
            <mxPoint x="520" y="80" as="targetPoint" />
          </mxGeometry>
        </mxCell>
        <mxCell id="UdDGJFr2nh46x9bYxFf4-3" value="32 bits" style="edgeLabel;html=1;align=center;verticalAlign=middle;resizable=0;points=[];" parent="UdDGJFr2nh46x9bYxFf4-2" vertex="1" connectable="0">
          <mxGeometry x="-0.0218" relative="1" as="geometry">
            <mxPoint as="offset" />
          </mxGeometry>
        </mxCell>
        <mxCell id="UdDGJFr2nh46x9bYxFf4-4" value="Mode" style="rounded=0;whiteSpace=wrap;html=1;" parent="1" vertex="1">
          <mxGeometry x="280" y="120" width="80" height="40" as="geometry" />
        </mxCell>
        <mxCell id="UdDGJFr2nh46x9bYxFf4-5" value="Type" style="rounded=0;whiteSpace=wrap;html=1;" parent="1" vertex="1">
          <mxGeometry x="360" y="120" width="80" height="40" as="geometry" />
        </mxCell>
        <mxCell id="UdDGJFr2nh46x9bYxFf4-6" value="Unused" style="rounded=0;whiteSpace=wrap;html=1;" parent="1" vertex="1">
          <mxGeometry x="440" y="120" width="80" height="40" as="geometry" />
        </mxCell>
        <mxCell id="UdDGJFr2nh46x9bYxFf4-7" value="PID" style="rounded=0;whiteSpace=wrap;html=1;" parent="1" vertex="1">
          <mxGeometry x="200" y="160" width="320" height="40" as="geometry" />
        </mxCell>
        <mxCell id="SyNc4-4kchW76cqWuUaT-2" value="&amp;lt;&amp;lt;Enum&amp;gt;&amp;gt;&lt;div&gt;Mode&lt;/div&gt;" style="swimlane;whiteSpace=wrap;html=1;startSize=30;" parent="1" vertex="1">
          <mxGeometry x="170" y="240" width="180" height="120" as="geometry">
            <mxRectangle x="200" y="240" width="100" height="40" as="alternateBounds" />
          </mxGeometry>
        </mxCell>
        <mxCell id="SyNc4-4kchW76cqWuUaT-3" value="NONE" style="text;html=1;align=center;verticalAlign=middle;whiteSpace=wrap;rounded=0;" parent="SyNc4-4kchW76cqWuUaT-2" vertex="1">
          <mxGeometry y="30" width="180" height="30" as="geometry" />
        </mxCell>
        <mxCell id="SyNc4-4kchW76cqWuUaT-6" value="STATUS" style="text;html=1;align=center;verticalAlign=middle;whiteSpace=wrap;rounded=0;" parent="SyNc4-4kchW76cqWuUaT-2" vertex="1">
          <mxGeometry y="60" width="180" height="30" as="geometry" />
        </mxCell>
        <mxCell id="SyNc4-4kchW76cqWuUaT-7" value="" style="line;strokeWidth=2;html=1;" parent="SyNc4-4kchW76cqWuUaT-2" vertex="1">
          <mxGeometry y="55" width="180" height="10" as="geometry" />
        </mxCell>
        <mxCell id="SyNc4-4kchW76cqWuUaT-8" value="" style="line;strokeWidth=2;html=1;" parent="SyNc4-4kchW76cqWuUaT-2" vertex="1">
          <mxGeometry y="85" width="180" height="10" as="geometry" />
        </mxCell>
        <mxCell id="SyNc4-4kchW76cqWuUaT-9" value="EXECUTE" style="text;html=1;align=center;verticalAlign=middle;whiteSpace=wrap;rounded=0;" parent="SyNc4-4kchW76cqWuUaT-2" vertex="1">
          <mxGeometry y="90" width="180" height="30" as="geometry" />
        </mxCell>
        <mxCell id="SyNc4-4kchW76cqWuUaT-10" value="" style="line;strokeWidth=2;html=1;" parent="SyNc4-4kchW76cqWuUaT-2" vertex="1">
          <mxGeometry y="114" width="180" height="10" as="geometry" />
        </mxCell>
        <mxCell id="SyNc4-4kchW76cqWuUaT-11" value="&amp;lt;&amp;lt;Enum&amp;gt;&amp;gt;&lt;div&gt;Type&lt;/div&gt;" style="swimlane;whiteSpace=wrap;html=1;startSize=30;" parent="1" vertex="1">
          <mxGeometry x="370" y="240" width="180" height="120" as="geometry">
            <mxRectangle x="430" y="290" width="100" height="40" as="alternateBounds" />
          </mxGeometry>
        </mxCell>
        <mxCell id="SyNc4-4kchW76cqWuUaT-12" value="NONE" style="text;html=1;align=center;verticalAlign=middle;whiteSpace=wrap;rounded=0;" parent="SyNc4-4kchW76cqWuUaT-11" vertex="1">
          <mxGeometry y="30" width="180" height="30" as="geometry" />
        </mxCell>
        <mxCell id="SyNc4-4kchW76cqWuUaT-13" value="UNIQUE" style="text;html=1;align=center;verticalAlign=middle;whiteSpace=wrap;rounded=0;" parent="SyNc4-4kchW76cqWuUaT-11" vertex="1">
          <mxGeometry y="60" width="180" height="30" as="geometry" />
        </mxCell>
        <mxCell id="SyNc4-4kchW76cqWuUaT-14" value="" style="line;strokeWidth=2;html=1;" parent="SyNc4-4kchW76cqWuUaT-11" vertex="1">
          <mxGeometry y="55" width="180" height="10" as="geometry" />
        </mxCell>
        <mxCell id="SyNc4-4kchW76cqWuUaT-15" value="" style="line;strokeWidth=2;html=1;" parent="SyNc4-4kchW76cqWuUaT-11" vertex="1">
          <mxGeometry y="85" width="180" height="10" as="geometry" />
        </mxCell>
        <mxCell id="SyNc4-4kchW76cqWuUaT-16" value="PIPELINE" style="text;html=1;align=center;verticalAlign=middle;whiteSpace=wrap;rounded=0;" parent="SyNc4-4kchW76cqWuUaT-11" vertex="1">
          <mxGeometry y="90" width="180" height="30" as="geometry" />
        </mxCell>
        <mxCell id="SyNc4-4kchW76cqWuUaT-17" value="" style="line;strokeWidth=2;html=1;" parent="SyNc4-4kchW76cqWuUaT-11" vertex="1">
          <mxGeometry y="114" width="180" height="10" as="geometry" />
        </mxCell>
      </root>
    </mxGraphModel>
  </diagram>
</mxfile>
